<?xml version="1.0" standalone="no"?> 
<!DOCTYPE svg PUBLIC "-//W3C//DTD SVG 1.1//EN" "http://www.w3.org/Graphics/SVG/1.1/DTD/svg11.dtd" >
<svg xmlns="http://www.w3.org/2000/svg">
<defs>
  <font id="symbols" horiz-adv-x="513">
    <font-face font-family="symbols"
      units-per-em="512" ascent="512"
      descent="0" />
    <missing-glyph horiz-adv-x="0" />
    <glyph glyph-name="cedar-leaf"
      unicode="&#xE001;"
      horiz-adv-x="512" d=" M383.679156224 132.849574912L266.138494976 249.849976832L383.679156224 366.852754432L383.679156224 132.849574912zM141.436627968 132.849574912L258.9796751360001 249.849976832L141.436627968 366.852754432L141.436627968 132.849574912zM263.17235712 478.508719616L355.9769108480001 386.1307299840001L263.17235712 293.752740864L170.367804416 386.1307299840001L263.17235712 478.508719616zM263.17235712 205.348636672L355.9769108480001 112.970646528L263.17235712 20.592657408L170.367804416 112.970646528L263.17235712 205.348636672z" />
    <glyph glyph-name="chevron-down"
      unicode="&#xE002;"
      horiz-adv-x="512" d=" M380.532308 304.0506811C380.532308 299.461278 378.668 294.8599026 374.926615 291.3520024L270.938256 193.845146C267.345846 190.476923 262.480769 188.589282 257.394359 188.589282C252.307949 188.589282 247.442872 190.484905 243.850462 193.845146L139.86635897 291.3520024C132.38784615 298.3598213 132.38358974 309.7335593 139.86635897 316.74536899C147.3533846 323.7611694700001 159.4713846 323.7611694700001 166.9541538 316.74536899L257.394359 231.9491639000001L347.830308 316.74935978C355.308821 323.76516026 367.435333 323.76516026 374.9223590000001 316.74935978C378.663744 313.2454503 380.532308 308.6440749 380.532308 304.0506811L380.532308 304.0506811z" />
    <glyph glyph-name="chevron-left"
      unicode="&#xE003;"
      horiz-adv-x="512" d=" M306.146462 141.093165C301.2473330000001 141.093165 296.343949 142.841129 292.6025640000001 146.349029L188.60994872 243.847904C185.02179487 247.2161270000001 183 251.781585 183 256.546583C183 261.307589 185.02179487 265.877038 188.60569231 269.2452610000001L292.6025640000001 366.74014503C300.076821 373.75195473 312.20759 373.75195473 319.681846 366.74014503C327.168872 359.7243446 327.168872 348.3585881 319.681846 341.3427877000001L229.241641 256.546583L319.686103 171.750377C327.173128 164.738568 327.173128 153.368821 319.686103 146.35302C315.948974 142.849111 311.04559 141.093165 306.146462 141.093165L306.146462 141.093165z" />
    <glyph glyph-name="chevron-right"
      unicode="&#xE004;"
      horiz-adv-x="512" d=" M204.4102564 372C209.3051282 372 214.2127692 370.25203606 217.9541538 366.74413582L321.946769 269.2452610000001C325.5434360000001 265.877038 327.556718 261.315571 327.556718 256.546583C327.556718 251.777594 325.534923 247.2161270000001 321.946769 243.847904L217.9541538 146.35302C210.4798974 139.34121 198.3491282 139.33722 190.87061538 146.35302C183.38784615 153.368821 183.38784615 164.734577 190.87061538 171.750377L281.3108210000001 256.546583L190.86635897 341.3387969000001C183.38358974 348.3506066 183.38358974 359.716363 190.86635897 366.7361542500001C194.6034872 370.2480452700001 199.5111282 372 204.4102564 372L204.4102564 372z" />
    <glyph glyph-name="chevron-up"
      unicode="&#xE005;"
      horiz-adv-x="512" d=" M132 208.538601C132 213.128004 133.86430769 217.729379 137.60569231 221.23728L241.594051 318.74014503C245.186462 322.104377 250.055795 324 255.137949 324C260.220103 324 265.089436 322.104377 268.681846 318.74413582L372.665949 221.23728C380.144462 214.229461 380.1487180000001 202.855723 372.665949 195.847904C365.183179 188.828113 353.060923 188.828113 345.5781540000001 195.847904L255.137949 280.6401182L164.702 195.843913C157.2234872 188.824122 145.1012308 188.824122 137.61420513 195.843913C133.8685641 199.347823 132 203.945207 132 208.538601L132 208.538601z" />
    <glyph glyph-name="cross"
      unicode="&#xE006;"
      horiz-adv-x="512" d=" M283.763651 255.977683L352.292984 324.5070159C359.957492 332.168254 359.957492 344.590381 352.292984 352.25161905C344.631746 359.9128571400001 332.203079 359.9128571400001 324.551651 352.25161905L256.019048 283.7255556L187.4897143 352.25488889C179.831746 359.9128571400001 167.4063492 359.9128571400001 159.74838095 352.25488889C152.08387302 344.590381 152.08387302 332.168254 159.74838095 324.5102857L228.2777143 255.980952L159.74838095 187.451619C152.08387302 179.787111 152.08387302 167.364984 159.74838095 159.710286C163.57736508 155.878032 168.5998413 153.961905 173.6190476 153.961905C178.638254 153.961905 183.6607302 155.878032 187.4897143 159.710286L256.019048 228.236349L324.548381 159.710286C328.377365 155.878032 333.3998410000001 153.961905 338.419048 153.961905C343.4382540000001 153.961905 348.46073 155.878032 352.289714 159.710286C359.954222 167.371524 359.954222 179.793651 352.289714 187.451619L283.763651 255.977683L283.763651 255.977683z" />
    <glyph glyph-name="facebook-circle"
      unicode="&#xE007;"
      horiz-adv-x="512" d=" M41.810512083 264.009736C41.810512083 381.6410165 137.3072976 477 255.108565 477C372.909833 477 468.406619 381.6410165 468.406619 264.009736C468.406619 146.378456 372.909833 51.019472 255.108565 51.019472C137.3072976 51.019472 41.810512083 146.378456 41.810512083 264.009736z M272.9443730000001 148.145354L272.9443730000001 264.023303L304.931754 264.023303L309.170773 303.955486L272.9443730000001 303.955486L272.998719 323.941928C272.998719 334.356856 273.9882760000001 339.937413 288.9471210000001 339.937413L308.94433 339.937413L308.94433 379.8741177L276.952419 379.8741177C238.52499 379.8741177 224.999531 360.502713 224.999531 327.926101L224.999531 303.950964L201.046358 303.950964L201.046358 264.018781L224.999531 264.018781L224.999531 148.145354L272.9443730000001 148.145354z" />
    <glyph glyph-name="facebook"
      unicode="&#xE008;"
      horiz-adv-x="512" d=" M279.7256965000001 104.189838L279.7256965000001 255.530435L321.397331 255.530435L326.919723 307.6832423L279.7256965000001 307.6832423L279.7964963 333.7862246C279.7964963 347.3884801000001 281.0856443 354.6768793 300.573314 354.6768793L326.624723 354.6768793L326.624723 406.835593349L284.9471883 406.835593349C234.8857664 406.835593349 217.2654439 381.5358706 217.2654439 338.9896927L217.2654439 307.677336L186.06039266 307.677336L186.06039266 255.5245280000001L217.2654439 255.5245280000001L217.2654439 104.189838L279.7256965000001 104.189838z" />
    <glyph glyph-name="flickr-circle"
      unicode="&#xE009;"
      horiz-adv-x="512" d=" M39.43153625 264.009736C39.43153625 381.6410165 134.9283217 477 252.72959 477C370.5308570000001 477 466.027643 381.6410165 466.027643 264.009736C466.027643 146.378456 370.5308570000001 51.019472 252.72959 51.019472C134.9283217 51.019472 39.43153625 146.378456 39.43153625 264.009736z M199.404885 306.6077890000001C173.880509 306.6077890000001 153.190498 285.9481 153.190498 260.46028C153.190498 234.972078 173.880509 214.312389 199.404885 214.312008C224.929643 214.312008 245.619654 234.972078 245.619654 260.46028C245.619654 285.9481 224.930025 306.60817 199.404885 306.6077890000001z M266.94946 260.46028C266.94946 234.972078 287.639471 214.312008 313.163847 214.312008C338.688987 214.312008 359.378616 234.972078 359.378616 260.46028C359.378616 285.947719 338.688605 306.6077890000001 313.163847 306.6077890000001C287.639089 306.6077890000001 266.94946 285.947719 266.94946 260.46028zM281.1590700000001 260.459898C281.1590700000001 278.1045900000001 295.462918 292.408438 313.10761 292.408438C330.752302 292.408438 345.05615 278.1045900000001 345.05615 260.459898C345.05615 242.815206 330.752302 228.511359 313.10761 228.511359C295.462918 228.511359 281.1590700000001 242.815206 281.1590700000001 260.459898z" />
    <glyph glyph-name="flickr"
      unicode="&#xE00A;"
      horiz-adv-x="512" d=" M182.7522895 314.489703758C149.336319 314.489703758 122.249395981 287.6098934000001 122.249395981 254.4483208C122.249395981 221.2862521 149.336319 194.406442 182.7522895 194.405946C216.1687599 194.405946 243.255683 221.2862521 243.255683 254.4483208C243.255683 287.6098934000001 216.1692598 314.490199869 182.7522895 314.489703758z M271.180211 254.4483208C271.180211 221.2862521 298.267134 194.405946 331.683104 194.405946C365.100075 194.405946 392.186498 221.2862521 392.186498 254.4483208C392.186498 287.6093973 365.099575 314.489703758 331.683104 314.489703758C298.266634 314.489703758 271.180211 287.6093973 271.180211 254.4483208zM289.7831310000001 254.4478247C289.7831310000001 277.4048972 308.509424 296.0152794 331.60948 296.0152794C354.709536 296.0152794 373.435829 277.4048972 373.435829 254.4478247C373.435829 231.4907522 354.709536 212.88037 331.60948 212.88037C308.509424 212.88037 289.7831310000001 231.4907522 289.7831310000001 254.4478247z" />
    <glyph glyph-name="googleplus-circle"
      unicode="&#xE00B;"
      horiz-adv-x="512" d=" M39.810512083 264.009736C39.810512083 381.6410165 135.3072976 477 253.108565 477C370.909833 477 466.406619 381.6410165 466.406619 264.009736C466.406619 146.378456 370.909833 51.019472 253.108565 51.019472C135.3072976 51.019472 39.810512083 146.378456 39.810512083 264.009736z M453.795836 336.330793C456.533658 328.756715 458.853698 320.9831930000001 460.728177 313.037965L412.338369 313.037965L412.338369 257.073154L388.562777 257.073154L388.562777 313.037965L333.086694 313.037965L333.086694 336.330793L388.562777 336.330793L388.562777 391.8038944L412.338369 391.8038944L412.338369 336.330793L453.795836 336.330793z M289.017701 54.024897C278.20693 52.194777 267.119372 51.176898 255.820191 51.036331C275.259559 60.378253 285.3172590000001 76.63453 285.3172590000001 96.024852C285.3172590000001 121.361493 269.056933 134.743522 231.175735 161.686008C227.244668 162.042862 224.743079 162.042862 219.739902 162.042862C215.27278 162.042862 188.470045 161.150726 167.563912 154.192071C156.664134 150.266676 124.8582219 138.312064 124.8582219 102.983507C124.8582219 99.592953 125.1774319 96.293708 125.8020602 93.099703C113.1445124 102.516132 101.5685753 113.30154 91.2941221 125.236372C91.7042114 125.330052 91.4650007 125.48067 91.1365858 125.419575C91.0232283 125.551552 90.9100297 125.683669 90.7969904 125.815927C96.7716673 135.607325 105.9141304 145.204466 119.3189902 153.121509C150.231477 172.034777 191.865058 174.532755 214.379355 175.960172C207.410644 184.881525 199.369824 194.338158 199.369824 209.861312C199.369824 218.247384 201.871412 223.243341 204.373001 229.131434C198.833769 228.596153 193.473222 228.060872 188.470045 228.060872C135.7580006 228.060872 105.9176229 267.314824 105.9176229 306.033494C105.9176229 328.872157 116.4600318 354.244484 137.7235345 372.604628C166.134433 395.925044 199.905878 399.9039673 226.708613 399.9039673L329.095059 399.9039673L297.289147 382.0434192L266.555345 382.0434192C277.991178 372.604628 301.75627 352.745697 301.75627 314.954847C301.75627 278.198874 280.850137 260.89145 260.1226890000001 244.476161C253.511347 238.052787 246.185267 231.094132 246.185267 220.210081C246.185267 209.326031 253.511347 203.259511 259.050579 198.798835L276.9190690000001 184.881525C298.897311 166.681965 318.731335 149.731395 318.731335 115.473401C318.731335 93.405935 308.657628 71.258951 289.017701 54.024897zM257.97847 292.116184C257.97847 327.980022 236.714967 383.5243638 195.438756 383.5243638C182.573444 383.5243638 168.636022 377.0653044 160.595201 367.126918C152.197011 356.706778 149.695423 343.324749 149.695423 330.478001C149.695423 297.112142 168.993391 241.978182 211.877767 241.978182C224.207024 241.978182 237.608392 248.0447020000001 245.649212 255.895492C257.0850450000001 267.314824 257.97847 283.194831 257.97847 292.116184z" />
    <glyph glyph-name="googleplus"
      unicode="&#xE00C;"
      horiz-adv-x="513" d=" M265.3482410000001 235.412529L252.055578 245.7831760000001C248.007373 249.1562350000001 242.470711 253.608941 242.470711 261.7599410000001C242.470711 269.944471 248.007373 275.148235 252.813157 279.966412C268.298458 292.2113530000001 283.77041 305.2442353 283.77041 332.7081765C283.77041 360.95 266.082458 375.8068824 257.60559 382.8547647000001L280.463096 382.8547647000001L304.455301 398L231.771169 398C211.8271687 398 183.0859157 393.25894118 162.0439277 375.8068824C146.1848434 362.0598235 138.4488675 343.1056471 138.4488675 326.0425294000001C138.4488675 297.076471 160.585506 267.714765 199.6758795 267.714765C203.366988 267.714765 207.4051807 268.080235 211.4700723 268.459118C209.6445422 263.996353 207.798988 260.281294 207.798988 253.9744120000001C207.798988 242.470471 213.6827349 235.415882 218.8689759 228.733471C202.258988 227.586765 171.2516747 225.739294 148.3941687 211.623412C126.62463855 198.617353 120 179.686647 120 166.325176C120 138.824353 145.8010482 113.207882 199.3020964 113.207882C262.745108 113.207882 296.332193 148.477471 296.332193 183.391647C296.33553 209.045 281.584446 221.672176 265.3482410000001 235.412529L265.3482410000001 235.412529zM217.026759 278.122294C185.2885663 278.122294 170.9112651 319.3433529 170.9112651 344.2154706C170.9112651 353.8987647 172.7367952 363.8972353000001 179.0143494 371.7062353C184.9314699 379.1430588 195.2372048 383.9679412000001 204.8587831 383.9679412000001C235.455602 383.9679412000001 251.324699 342.3780588 251.324699 315.6282941C251.324699 308.9358235 250.590482 297.076471 242.10694 288.503C236.173133 282.554882 226.244518 278.122294 217.026759 278.122294L217.026759 278.122294zM217.3905301 128.772235C177.9230361 128.772235 152.4724096 147.739824 152.4724096 174.114059C152.4724096 200.481588 176.0708072 209.400412 184.1905783 212.354353C199.6758795 217.588294 219.6031928 218.319235 222.927193 218.319235C226.614964 218.319235 228.460518 218.319235 231.397386 217.947059C259.454482 197.886412 271.63247 187.887941 271.63247 168.896882C271.63247 145.899059 252.813157 128.772235 217.3905301 128.772235L217.3905301 128.772235z M358.71059 277.042647L358.71059 314.1764706L340.455289 314.1764706L340.455289 277.042647L303.554217 277.042647L303.554217 258.497529L340.455289 258.497529L340.455289 221.135706L358.71059 221.135706L358.71059 258.497529L395.798554 258.497529L395.798554 277.042647L358.71059 277.042647z" />
    <glyph glyph-name="instagram-circle"
      unicode="&#xE00D;"
      horiz-adv-x="512" d=" M39.673584584 264.009736C39.673584584 381.6410165 135.1703701 477 252.971638 477C370.772906 477 466.269691 381.6410165 466.269691 264.009736C466.269691 146.378456 370.772906 51.019472 252.971638 51.019472C135.1703701 51.019472 39.673584584 146.378456 39.673584584 264.009736z M343.124876 156.294939C351.98271 158.172193 359.220737 165.551317 360.952041 174.448944C361.13787 175.410766 361.274144 176.388052 361.432099 177.352967L361.432099 350.6665060000001C361.2803390000001 351.615957 361.150259 352.568501 360.96443 353.51486C359.06588 363.222768 351.047372 370.756526 341.201549 372.10184C340.792726 372.154415 340.393194 372.244103 339.990566 372.3152350000001L165.95271 372.3152350000001C164.902778 372.126581 163.846652 371.9843180000001 162.812206 371.749275C153.201765 369.562753 146.090721 361.834157 144.721783 352.110785C144.666034 351.705645 144.582411 351.303597 144.511177 350.898456L144.511177 177.111738C144.709394 176.010745 144.867349 174.900475 145.11512 173.805668C147.239762 164.42249 155.261367 157.148517 164.80367 155.923817C165.265144 155.868149 165.729716 155.778462 166.19119 155.704238L339.752085 155.704238C340.879446 155.895983 342.009904 156.05371 343.124876 156.294939zM167.978243 283.9018250000001C167.978243 251.846243 167.975146 219.790661 167.98134 187.735078C167.98134 183.123899 171.979754 179.159089 176.597597 179.159089C227.502268 179.155996 278.403842 179.155996 329.308513 179.159089C333.969716 179.159089 337.9464500000001 183.117714 337.9464500000001 187.762912C337.949547 219.781383 337.9464500000001 251.79676 337.9464500000001 283.812138L337.9464500000001 284.477063L317.23894 284.477063C320.162645 275.146461 321.060817 265.655039 319.914873 255.98115C318.762735 246.304168 315.640814 237.298297 310.555302 228.982093C305.466693 220.65661 298.869775 213.759943 290.792421 208.270444C269.855723 194.031766 242.291134 192.779232 220.075315 205.230344C208.845068 211.517754 200.027497 220.285489 193.879665 231.583033C184.709019 248.441207 183.244069 266.134404 188.62381 284.492526C181.754343 284.4863410000001 174.91275 284.4863410000001 167.978243 284.4863410000001L167.978243 283.9018250000001zM209.018508 264.674661C208.671628 240.115725 228.360177 220.647332 251.963517 220.140133C276.523875 219.614378 296.388962 239.209571 296.906185 263.0417290000001C297.435797 287.6192210000001 277.583099 307.919544 252.973187 307.90408C228.914566 307.919544 209.356097 288.590321 209.018508 264.674661zM329.6089360000001 316.761503C334.202002 316.8759320000001 337.943353 320.8067230000001 337.943353 325.3993460000001C337.9464500000001 332.237252 337.9464500000001 339.0782500000001 337.943353 345.916156C337.943353 350.821139 334.056436 354.7240960000001 329.150559 354.727189C322.321355 354.730281 315.492151 354.7333740000001 308.659849 354.727189C303.766361 354.721003 299.867055 350.808769 299.8639580000001 345.903785C299.860861 339.12464 299.842278 332.3454950000001 299.888735 325.563258C299.89493 324.5519530000001 300.086953 323.500443 300.409056 322.541714C301.635525 318.932562 304.946373 316.718206 309.000535 316.69965C312.295897 316.693464 315.591259 316.702742 318.889718 316.702742C322.457629 316.742947 326.037928 316.674908 329.6089360000001 316.761503z" />
    <glyph glyph-name="instagram"
      unicode="&#xE00E;"
      horiz-adv-x="512" d=" M374.323806 114.692924C385.904002 117.147133 395.36656 126.794152 397.629962 138.426372C397.872903 139.6838 398.05106 140.961444 398.25756 142.222915L398.25756 368.8025417C398.059158 370.0437970000001 397.889099 371.2890954 397.646158 372.5263075000001C395.164109 385.2178394 384.681198 395.06701806 371.809365 396.82579996C371.274894 396.89453397 370.752571 397.011786092 370.226198 397.104779158L142.6996442 397.104779158C141.3270266 396.85814537 139.9463109 396.67215924 138.5939384 396.36487781C126.0298308 393.50635182 116.73328199 383.4024531 114.943615362 370.6907053C114.870733011 370.1610491 114.761409484 369.6354361 114.668282035 369.10578L114.668282035 141.907547C114.927419284 140.468176 115.13391928 139.016676 115.45784084 137.585391C118.23546823 125.318393 128.7224288 115.808841 141.1974579 114.207743C141.8007618 114.134966 142.4081148 114.017714 143.0114187 113.920677L369.914424 113.920677C371.388267 114.171354 372.866159 114.377556 374.323806 114.692924zM145.3477029 281.518441C145.3477029 239.610914 145.3436539 197.703387 145.351752 155.795859C145.351752 149.767483 150.5790362 144.58413 156.6161243 144.58413C223.165809 144.580087 289.7114450000001 144.580087 356.26113 144.58413C362.3549040000001 144.58413 367.553845 149.7593960000001 367.553845 155.832248C367.5578940000001 197.691257 367.553845 239.546223 367.553845 281.401189L367.553845 282.270472L340.482101 282.270472C344.304375 270.072208 345.478591 257.663698 343.980454 245.016641C342.474218 232.365541 338.392807 220.59181 331.744317 209.719708C325.091778 198.835476 316.467366 189.819192 305.907523 182.642553C278.536151 164.0277670000001 242.499877 162.390281 213.4562603 178.66811C198.7745155 186.887889 187.2469569 198.350295 179.2096532 213.12002C167.2205064 235.159376 165.3053202 258.290391 172.3384671 282.290688C163.3577418 282.282602 154.4134577 282.282602 145.3477029 282.282602L145.3477029 281.518441zM199.0012606 256.3820110000001C198.5477704 224.275145 224.287388 198.823347 255.144965 198.160266C287.25369 197.472926 313.224101 223.090494 313.900288 254.247214C314.59267 286.37834 288.638455 312.9177522 256.464946 312.8975364000001C225.012162 312.9177522 199.4426037 287.647897 199.0012606 256.3820110000001zM356.653885 324.4771947C362.6585810000001 324.6267922 367.549796 329.7656699000001 367.549796 335.7697874C367.553845 344.7092513 367.553845 353.6527583 367.549796 362.5922222000001C367.549796 369.0047005 362.468277 374.1071896 356.05463 374.1112328000001C347.126542 374.115276 338.198454 374.1193192 329.266317 374.1112328000001C322.8688660000001 374.1031465 317.7711500000001 368.9885278 317.7671010000001 362.5760495C317.763052 353.713406 317.738758 344.8507625 317.799493 335.9840758000001C317.807591 334.6619570000001 318.058631 333.2872769 318.479729 332.0338921C320.08314 327.3155048 324.411542 324.4205902 329.7117090000001 324.3963311C334.019866 324.3882448 338.3280220000001 324.4003743 342.640228 324.4003743C347.3046990000001 324.4529356 351.985365 324.3639857 356.653885 324.4771947z" />
    <glyph glyph-name="linkedin-circle"
      unicode="&#xE00F;"
      horiz-adv-x="512" d=" M39.242048334 257.009736C39.242048334 374.6410165 134.7388338 470 252.540102 470C370.34137 470 465.838155 374.6410165 465.838155 257.009736C465.838155 139.378456 370.34137 44.019472 252.540102 44.019472C134.7388338 44.019472 39.242048334 139.378456 39.242048334 257.009736z M198.174383 301.668012L149.906132 301.668012L149.906132 156.641953L198.174383 156.641953L198.174383 301.668012z M201.353452 346.530423C201.040172 360.750137 190.871586 371.5807205 174.359321 371.5807205C157.847056 371.5807205 147.05191 360.750137 147.05191 346.530423C147.05191 332.60525 157.527993 321.462801 173.732761 321.462801L174.041221 321.462801C190.871586 321.462801 201.353452 332.60525 201.353452 346.530423z M372.248163 239.7954630000001C372.248163 284.341196 348.435993 305.073505 316.673259 305.073505C291.045992 305.073505 279.572234 290.997212 273.165899 281.122437L273.165899 301.6641620000001L224.891864 301.6641620000001C225.528063 288.055667 224.891864 156.638103 224.891864 156.638103L273.165899 156.638103L273.165899 237.632619C273.165899 241.96697 273.479179 246.290733 274.7554340000001 249.3939860000001C278.243927 258.053063 286.186779 267.01823 299.521903 267.01823C316.995214 267.01823 323.979912 253.719674 323.979912 234.230977L323.979912 156.641953L372.246236 156.641953L372.248163 239.7954630000001z" />
    <glyph glyph-name="linkedin"
      unicode="&#xE010;"
      horiz-adv-x="512" d=" M177.024856 304.8520719L113.80626112 304.8520719L113.80626112 114.841077L177.024856 114.841077L177.024856 304.8520719z M181.1885922 363.6301381C180.7782786 382.2605958000001 167.4601303 396.450666147 145.8334472 396.450666147C124.2067641 396.450666147 110.0679885735 382.2605958000001 110.0679885735 363.6301381C110.0679885735 345.3855817 123.7888754 330.7869099 145.01282 330.7869099L145.4168211 330.7869099C167.4601303 330.7869099 181.1885922 345.3855817 181.1885922 363.6301381z M405.015294 223.787575C405.015294 282.150734 373.827672 309.3138982 332.226923 309.3138982C298.662008 309.3138982 283.63443 290.871347 275.243832 277.933564L275.243832 304.8470275L212.017663 304.8470275C212.850915 287.017378 212.017663 114.836033 212.017663 114.836033L275.243832 114.836033L275.243832 220.953848C275.243832 226.632651 275.654146 232.2975810000001 277.325701 236.3634170000001C281.8947 247.708411 292.297728 259.45444 309.7632 259.45444C332.648599 259.45444 341.796699 242.03087 341.796699 216.497066L341.796699 114.841077L405.012769 114.841077L405.015294 223.787575z" />
    <glyph glyph-name="menu"
      unicode="&#xE011;"
      horiz-adv-x="512" d=" M171.833333 315.416667L339.651308 315.416667C348.948487 315.416667 356.484641 322.934167 356.484641 332.2083330000001C356.484641 341.4825 348.948487 349 339.651308 349L171.833333 349C162.536154 349 155 341.4825 155 332.2083330000001C155 322.934167 162.536154 315.416667 171.833333 315.416667L171.833333 315.416667z M339.651308 273.8818330000001L171.833333 273.8818330000001C162.536154 273.8818330000001 155 266.364333 155 257.090167C155 247.818583 162.536154 240.2985 171.833333 240.2985L339.651308 240.2985C348.948487 240.2985 356.484641 247.816 356.484641 257.090167C356.484641 266.364333 348.948487 273.8818330000001 339.651308 273.8818330000001L339.651308 273.8818330000001z M339.651308 198.753333L171.833333 198.753333C162.536154 198.753333 155 191.238417 155 181.961667C155 172.6875 162.536154 165.17 171.833333 165.17L339.651308 165.17C348.948487 165.17 356.484641 172.6875 356.484641 181.961667C356.484641 191.238417 348.948487 198.753333 339.651308 198.753333L339.651308 198.753333z" />
    <glyph glyph-name="pinterest-circle"
      unicode="&#xE012;"
      horiz-adv-x="512" d=" M39.484096668 264.009736C39.484096668 381.6410165 134.9808822 477 252.78215 477C370.583418 477 466.080203 381.6410165 466.080203 264.009736C466.080203 146.378456 370.583418 51.019472 252.78215 51.019472C134.9808822 51.019472 39.484096668 146.378456 39.484096668 264.009736z M162.023446 294.8472520000001C162.023446 271.400059 170.913382 250.540446 189.980573 242.76711C193.107138 241.490733 195.907703 242.723202 196.814437 246.179868C197.445208 248.57213 198.937225 254.6072910000001 199.602871 257.12068C200.517187 260.539494 200.162378 261.738653 197.639292 264.718382C192.141269 271.194143 188.628054 279.5776580000001 188.628054 291.4526630000001C188.628054 325.904259 214.441164 356.746265 255.844641 356.746265C292.506718 356.746265 312.64895 334.3771040000001 312.64895 304.5026010000001C312.64895 265.1953200000001 295.228437 232.020102 269.366805 232.020102C255.084986 232.020102 244.393713 243.81486 247.8205 258.2804730000001C251.923547 275.550179 259.871875 294.188623 259.871875 306.6541230000001C259.871875 317.812963 253.87348 327.120073 241.459715 327.120073C226.859478 327.120073 215.13107 312.038226 215.13107 291.834213C215.13107 278.965965 219.48582 270.262978 219.48582 270.262978C219.48582 270.262978 204.54442 207.048221 201.925808 195.977198C196.709813 173.929024 201.141893 146.90101 201.516414 144.171106C201.736274 142.554059 203.818123 142.16948 204.761248 143.39135C206.107702 145.14618 223.496374 166.582661 229.408341 188.002488C231.080795 194.067931 239.010927 225.474692 239.010927 225.474692C243.753843 216.440119 257.61717 208.482064 272.359937 208.482064C316.247077 208.482064 346.022221 248.434348 346.022221 301.911994C346.022221 342.348786 311.722505 380.008738 259.591363 380.008738C194.728039 380.008738 162.023446 333.571609 162.023446 294.8472520000001z" />
    <glyph glyph-name="pinterest"
      unicode="&#xE013;"
      horiz-adv-x="512" d=" M137.0306701506 298.5328140000001C137.0306701506 267.923927 148.6596672 240.692968 173.6016148 230.545349C177.6914991 228.879115 181.3549406 230.488029 182.5410468 235.000497C183.3661641 238.12345 185.3178839 246.001987 186.1886206 249.283063C187.3846441 253.746118 186.9205156 255.311548 183.6200463 259.2014020000001C176.4280382 267.655116 171.8323728 278.599285 171.8323728 294.101384C171.8323728 339.0758522 205.598712 379.33822 259.758936 379.33822C307.716896 379.33822 334.065114 350.1366381000001 334.065114 311.1372872C334.065114 259.8240160000001 311.277198 216.515781 277.447388 216.515781C258.765225 216.515781 244.779883 231.9131230000001 249.262492 250.797102C254.629721 273.341656 265.026993 297.673014 265.026993 313.9459678C265.026993 328.5131573 257.180445 340.6630236 240.941898 340.6630236C221.843209 340.6630236 206.501184 320.9745873 206.501184 294.599475C206.501184 277.800758 212.197667 266.439536 212.197667 266.439536C212.197667 266.439536 192.6527007 183.916506 189.2272738 169.463957C182.4041884 140.681404 188.2018275 105.397971 188.6917409 101.834248C188.9793419 99.72329 191.7026257 99.221246 192.9363348 100.816323C194.6976429 103.107147 217.4439057 131.091173 225.177397 159.053457C227.3651479 166.9715250000001 237.738618 207.971146 237.738618 207.971146C243.942865 196.17706 262.077595 185.788301 281.362729 185.788301C338.771852 185.788301 377.72096 237.943584 377.72096 307.755406C377.72096 360.5431853 332.853222 409.70596756 264.660054 409.70596756C179.8118126 409.70596756 137.0306701506 349.0851124 137.0306701506 298.5328140000001z" />
    <glyph glyph-name="rss-circle"
      unicode="&#xE014;"
      horiz-adv-x="512" d=" M42.810512083 256.009736C42.810512083 373.6410165 138.3072976 469 256.108565 469C373.909833 469 469.406619 373.6410165 469.406619 256.009736C469.406619 138.378456 373.909833 43.019472 256.108565 43.019472C138.3072976 43.019472 42.810512083 138.378456 42.810512083 256.009736z M233.383739 193.836958C233.383739 207.594966 222.143335 218.884357 208.228487 218.884357C194.36796 218.884357 183.106751 207.594966 183.106751 193.836958C183.106751 180.006242 194.36796 168.842647 208.228487 168.842647C222.142757 168.842647 233.383161 180.005665 233.383739 193.836958zM307.676972 168.896313C307.676972 237.5109300000001 251.774292 293.32371 183.106751 293.32371L183.106751 257.20389C206.663579 257.20389 228.814417 248.0068790000001 245.490391 231.345159C262.149028 214.718639 271.3396810000001 192.499935 271.3396810000001 168.895736L307.676972 168.896313zM371.76999 168.914201C371.76999 272.802685 287.1262930000001 357.376176 183.106751 357.376176L183.106751 321.2390440000001C267.107265 321.2390440000001 335.487598 252.893909 335.487598 168.915355L371.76999 168.914201z" />
    <glyph glyph-name="rss"
      unicode="&#xE015;"
      horiz-adv-x="512" d=" M200.1119965 164.724029C200.1119965 182.68185 185.3626823 197.417477 167.104046 197.417477C148.9166879 197.417477 134.140075663 182.68185 134.140075663 164.724029C134.140075663 146.671305 148.9166879 132.099876 167.104046 132.099876C185.3619241 132.099876 200.1112383 146.670552 200.1119965 164.724029zM297.5972970000001 132.169924C297.5972970000001 221.730056 224.2435155 294.5804214 134.140075663 294.5804214L134.140075663 247.434551C165.0506223 247.434551 194.1162725 235.430031 215.9979732 213.682102C237.856925 191.980118 249.916619 162.978862 249.916619 132.169171L297.5972970000001 132.169924zM381.698188 132.193273C381.698188 267.795083 270.631326 378.1857455020001 134.140075663 378.1857455020001L134.140075663 331.0172787C244.362972 331.0172787 334.0895470000001 241.808891 334.0895470000001 132.1947790000001L381.698188 132.193273z" />
    <glyph glyph-name="twitter-circle"
      unicode="&#xE016;"
      horiz-adv-x="512" d=" M42 257.009736C42 374.6410165 137.4967855 470 255.298053 470C373.099321 470 468.596107 374.6410165 468.596107 257.009736C468.596107 139.378456 373.099321 44.019472 255.298053 44.019472C137.4967855 44.019472 42 139.378456 42 257.009736z M250.01884 300.403112L250.465787 293.033168L243.016673 293.93561C215.901896 297.394971 192.213713 309.126718 172.101104 328.830037L162.268273 338.606493L159.735574 331.386956C154.372212 315.293406 157.798805 298.297413 168.972476 286.86648C174.931768 280.5493860000001 173.590927 279.646944 163.311149 283.407119C159.735574 284.610375 156.606946 285.5128170000001 156.308982 285.061596C155.266106 284.008747 158.841681 270.321709 161.672344 264.907056C165.545883 257.386706 173.441945 250.016762 182.082917 245.654959L189.383049 242.195597L180.742077 242.04519C172.399069 242.04519 172.101104 241.894783 172.994998 238.736236C175.974644 228.95978 187.744244 218.581696 200.854685 214.069486L210.091587 210.910939L202.046544 206.097914C190.127961 199.179192 176.123626 195.268609 162.119291 194.967795C155.415088 194.817388 149.902743 194.21576 149.902743 193.764539C149.902743 192.260469 168.078582 183.837676 178.656325 180.528722C210.389552 170.752266 248.08207 174.963662 276.388705 191.658841C296.501314 203.540995 316.613922 227.154896 325.999807 250.016762C331.065204 262.19973 336.130602 284.459968 336.130602 295.138866C336.130602 302.057589 336.577549 302.960031 344.920557 311.232416C349.836972 316.045441 354.455423 321.309686 355.349317 322.813756C356.83914 325.67149 356.690158 325.67149 349.092061 323.11457C336.428567 318.60236 334.640779 319.203988 340.898035 325.972304C345.516486 330.785328 351.0288310000001 339.508935 351.0288310000001 342.065854C351.0288310000001 342.517075 348.794096 341.76504 346.261398 340.411377C343.579716 338.907307 337.620425 336.651202 333.150956 335.2975390000001L325.105913 332.7406190000001L317.805781 337.704051C313.783259 340.411377 308.121932 343.419517 305.142286 344.321959C297.54419 346.427658 285.9235710000001 346.126844 279.070386 343.720331C260.4476 336.952016 248.678 319.5048020000001 250.01884 300.403112z" />
    <glyph glyph-name="twitter"
      unicode="&#xE017;"
      horiz-adv-x="512" d=" M253.10156 305.537391L253.686029 295.9262949L243.94488 297.1031638C208.4870953 301.6144947 177.5102398 316.9137905 151.2091361 342.6087617L138.3508187 355.3581749L135.0388279 345.9432236C128.02520019 324.955728 132.506129 302.7913636 147.1178533 287.8843574C154.9107729 279.646275 153.157366 278.4694061 139.7145796 283.3730265C135.0388279 284.9421851 130.94754505 286.119054 130.55789907 285.5306195C129.19413813 284.1576058 133.8698899 266.3084273 137.5715267 259.247214C142.6369245 249.439973 152.962543 239.8288770000001 164.2622765 234.140677L173.808603 229.629346L162.5088695 229.433201C151.5987821 229.433201 151.2091361 229.237057 152.378074 225.118015C156.2745338 212.368602 171.6655501 198.83461 188.8099733 192.950265L200.8889987 188.831224L190.3685572 182.55459C174.7827179 173.531928 156.4693568 168.432163 138.1559957 168.039873C129.38896112 167.843729 122.18051047 167.059149 122.18051047 166.4707150000001C122.18051047 164.509267 145.9489153 153.525157 159.7813477 149.209971C201.2786447 136.460558 250.568861 141.952612 287.58523 163.724687C313.8863330000001 179.220128 340.187437 210.014864 352.461285 239.8288770000001C359.085267 255.716607 365.709249 284.7460403 365.709249 298.6723224C365.709249 307.694984 366.293718 308.8718529 377.203805 319.6598179C383.632964 325.9364521 389.672477 332.8015208 390.841415 334.762969C392.789645 338.4897205 392.594822 338.4897205 382.658849 335.1552586C366.098895 329.2709141000001 363.7610190000001 330.0554933 371.943585 338.8820102C377.983097 345.1586443 385.191548 356.53504381 385.191548 359.86950572C385.191548 360.4579401800001 382.269203 359.47721608 378.9572120000001 357.71191272C375.450398 355.75046454 367.657479 352.8082923 361.812789 351.0429889L351.292347 347.708527L341.7460210000001 354.181306C336.4858000000001 357.71191272 329.0825270000001 361.63480909 325.186067 362.8116780000001C315.250094 365.557705455 300.053901 365.1654158180001 291.092043 362.0270987200001C266.73917 353.2005819 251.348153 330.447783 253.10156 305.537391z" />
    <glyph glyph-name="vimeo-circle"
      unicode="&#xE018;"
      horiz-adv-x="512" d=" M40.0525604172 264.009736C40.0525604172 381.6410165 135.5493459 477 253.350614 477C371.151882 477 466.648667 381.6410165 466.648667 264.009736C466.648667 146.378456 371.151882 51.019472 253.350614 51.019472C135.5493459 51.019472 40.0525604172 146.378456 40.0525604172 264.009736z M170.245532 306.636301C176.91831 298.757898 202.394749 203.628313 210.898877 186.079626C218.321375 170.690146 238.795797 150.344558 261.248619 164.873991C283.688369 179.40389 358.310144 243.020329 371.667839 318.146946C385.013863 393.2497893 281.869624 377.517223 270.944081 312.084664C298.250936 328.454923 312.826573 305.433168 298.853138 279.3679180000001C284.904912 253.3278400000001 272.1601570000001 236.344127 265.486445 236.344127C258.825803 236.344127 253.701479 253.770217 246.069845 284.227999C238.180523 315.716905 238.229073 372.437119 205.429103 366.006578C174.496895 359.944296 133.8440167 311.470744 133.8440167 311.470744L143.55255 298.757898C143.55255 298.757898 163.572286 314.515637 170.245532 306.636301z" />
    <glyph glyph-name="youtube-circle"
      unicode="&#xE019;"
      horiz-adv-x="512" d=" M41.242048334 264.009736C41.242048334 381.6410165 136.7388338 477 254.540102 477C372.34137 477 467.838155 381.6410165 467.838155 264.009736C467.838155 146.378456 372.34137 51.019472 254.540102 51.019472C136.7388338 51.019472 41.242048334 146.378456 41.242048334 264.009736z M350.5798250000001 260.968856C360.812066 250.787644 360.922759 200.525478 360.922759 200.235085C360.922759 200.235085 360.839865 149.711256 350.5798250000001 139.494643C340.390041 129.33498 254.499161 129.115902 254.499161 129.115902C254.499161 129.115902 168.620411 129.33498 158.403839 139.49413C148.186255 149.675855 148.15795 199.853879 148.15795 200.235085C148.15795 200.524452 148.18575 250.787644 158.403839 260.968856C168.621422 271.134676 254.499161 271.270125 254.499161 271.262429C254.499161 271.270125 340.390041 271.134676 350.5798250000001 260.968856zM197.060825 158.338915L183.07009 158.338915L183.07009 231.3579680000001L168.606258 231.3579680000001L168.606258 243.7648450000001L211.524152 243.7648450000001L211.524657 231.3579680000001L197.060825 231.3579680000001L197.060825 158.338915zM240.020165 165.269363C237.709773 162.697894 235.342771 160.754926 232.85143 159.426095C230.37323 158.069044 227.978429 157.42002 225.639732 157.42002C222.757681 157.42002 220.627733 158.338402 219.152843 160.23109C217.718893 162.118647 216.980943 164.908167 216.980943 168.674559L216.980943 221.368128L229.385084 221.368128L229.385084 173.026868C229.385084 171.529239 229.649432 170.455399 230.151339 169.791496C230.694188 169.113227 231.543337 168.787946 232.698785 168.787946C233.604038 168.787946 234.773134 169.233284 236.165131 170.116265C237.571281 171.006941 238.837928 172.123365 240.020671 173.486572L240.020671 221.367102L252.424306 221.367102L252.423801 158.338402L240.020165 158.338402L240.020165 165.269363zM286.085469 157.541103C283.649221 157.541103 281.490968 157.984902 279.597568 158.903797C277.7051800000001 159.821666 275.908321 161.235153 274.2944330000001 163.170425L274.2944330000001 158.338402L261.752305 158.338402L261.752305 243.7648450000001L274.2944330000001 243.7648450000001L274.2944330000001 216.260078C275.978578 218.168158 277.746627 219.644752 279.612226 220.63291C281.504615 221.635947 283.413178 222.131052 285.33286 222.131052C289.272809 222.131052 292.266058 220.788368 294.326254 218.117365C296.4142500000001 215.425839 297.444853 211.490649 297.444853 206.332832L297.444853 171.359928C297.443843 166.902441 296.4683330000001 163.482367 294.520851 161.100731C292.586005 158.713451 289.760564 157.541103 286.085469 157.541103zM316.737713 176.467978C316.737713 173.146925 317.142575 170.85097 317.948761 169.558053C318.783757 168.279501 320.175754 167.64946 322.153057 167.64946C324.212243 167.64946 325.646698 168.194332 326.468047 169.282025C327.275749 170.37023 327.706894 172.758023 327.706894 176.467978L327.706894 179.34318L340.472429 179.34318L340.472429 176.106782C340.472429 169.641682 338.92627 164.774258 335.795035 161.489119C332.705246 158.238868 328.05464 156.621695 321.874557 156.621695C316.319709 156.621695 311.934463 158.338915 308.746618 161.814914C305.5577610000001 165.26885 303.942862 170.032122 303.942862 176.107295L303.942862 204.4109C303.942862 209.858085 305.710911 214.337633 309.219209 217.77156C312.726496 221.212157 317.237093 222.928864 322.806093 222.928864C328.48528 222.928864 332.856879 221.332727 335.905222 218.146096C338.953564 214.967161 340.471923 210.388591 340.471923 204.4109L340.471923 188.344862L316.737713 188.344349L316.737713 176.467978zM283.3565680000001 210.487612C284.232505 209.386067 284.664661 207.768381 284.664661 205.641224L284.664661 173.098184C284.664661 171.071074 284.288609 169.643734 283.579975 168.76024C282.870329 167.855711 281.755821 167.410373 280.238474 167.410373C279.181081 167.410373 278.1929350000001 167.651512 277.245225 168.095824C276.285383 168.534493 275.296226 169.3046 274.2944330000001 170.32149L274.2944330000001 209.589753C275.143076 210.458881 275.992225 211.101748 276.855021 211.512198C277.7188270000001 211.935988 278.5952700000001 212.126847 279.485865 212.126847C281.155857 212.126847 282.451314 211.575818 283.3565680000001 210.487612zM318.019018 210.162331C317.156222 209.061299 316.738724 207.153219 316.738724 204.517104L316.738724 198.151538L327.70841 198.151538L327.70841 204.517104C327.70841 207.152706 327.263113 209.059759 326.399306 210.162331C325.56431 211.342887 324.158666 211.900586 322.278913 211.900586C320.302621 211.900586 318.8828240000001 211.342887 318.019018 210.162331z M176.57006 391.8038944L195.292777 334.98479L195.292777 297.701052L211.024266 297.701052L211.024266 336.744081L229.329485 391.8038944L213.334153 391.8038944L203.618477 354.188205L202.629825 354.188205L192.411736 391.8038944L176.57006 391.8038944zM251.268858 368.8761580000001C257.045596 368.8761580000001 261.793246 367.195365 265.496141 363.831728C269.170731 360.475786 271.0226830000001 356.1450260000001 271.0226830000001 350.852786L271.0226830000001 314.9897180000001C271.0226830000001 309.055125 269.213188 304.405752 265.607845 301.021079C261.9600430000001 297.644102 256.990502 295.947917 250.628963 295.947917C244.531773 295.947917 239.631983 297.700539 235.956382 301.1755110000001C232.309087 304.666388 230.458145 309.364501 230.458145 315.263694L230.457134 351.241687C230.457134 356.632435 232.336381 360.913941 236.109027 364.09339C239.868026 367.2800210000001 244.934613 368.8761580000001 251.268858 368.8761580000001zM250.600153 307.974615C252.494058 307.974615 253.983101 308.510765 255.11075 309.564083C256.225257 310.638435 256.782258 312.10015 256.782258 313.951793L256.782258 351.772194C256.782258 353.290346 256.210599 354.512974 255.069303 355.452904C253.928007 356.385139 252.438459 356.844843 250.600153 356.844843C248.888209 356.844843 247.510364 356.385139 246.438314 355.452904C245.380416 354.512974 244.837567 353.291372 244.837567 351.772194L244.837567 313.95128C244.837062 312.050896 245.352111 310.588668 246.340257 309.535864C247.328909 308.490243 248.749211 307.974615 250.600153 307.974615zM308.246732 297.700539L308.246732 305.3662050000001C305.698781 302.54744 303.012842 300.377699 300.213685 298.9088010000001C297.42969 297.432207 294.728589 296.696475 292.110886 296.696475C288.8543 296.696475 286.445346 297.735427 284.8036580000001 299.798451C283.1746070000001 301.868658 282.353258 304.962938 282.353258 309.1038660000001L282.353258 367.124563L296.301535 367.124563L296.301535 313.902026C296.301535 312.255608 296.622493 311.068895 297.206789 310.3341890000001C297.777437 309.598458 298.737783 309.2249480000001 300.046888 309.2249480000001C301.062833 309.2249480000001 302.371937 309.719027 303.9443790000001 310.687176C305.503173 311.661995 306.951275 312.9066850000001 308.245721 314.432019L308.245721 367.124563L322.223314 367.124563L322.223314 297.700539L308.246732 297.700539z" />
    <glyph glyph-name="vimeo"
      unicode="&#xE01A;"
      horiz-adv-x="513" d=" M148.5743808 310.3332515C157.2767962 300.016295 190.5023186 175.441839 201.593119 152.461415C211.273293 132.308525 237.975352 105.665493 267.257574 124.692131C296.522748 143.71938 393.84198 227.026621 411.26264 325.4067149C428.668079 423.7556765 294.150801 403.1535062 279.902072 317.4680119C315.514762 338.9052568 334.523823 308.7577196 316.300135 274.624654C298.109322 240.524553 281.488038 218.283976 272.784405 218.283976C264.097819 218.283976 257.414846 241.103855 247.461922 280.9890460000001C237.172933 322.2245189 237.23625 396.5009891700001 194.4596223 388.0800428400001C154.1188678 380.1413399 101.1007384 316.6640695 101.1007384 316.6640695L113.762284 300.016295C113.762284 300.016295 139.8713566 320.6514288 148.5743808 310.3332515z" />
    <glyph glyph-name="youtube"
      unicode="&#xE01B;"
      horiz-adv-x="512" d=" M383.44888 255.613257C396.755597 242.296387 396.89955 176.554237 396.89955 176.174407C396.89955 176.174407 396.79175 110.090008 383.44888 96.726834C370.197377 83.438149 258.4989080000001 83.151598 258.4989080000001 83.151598C258.4989080000001 83.151598 146.8162152 83.438149 133.5298745 96.726163C120.242219273 110.043704 120.205409543 175.675796 120.205409543 176.174407C120.205409543 176.552895 120.241561957 242.296387 133.5298745 255.613257C146.8175298 268.909995 258.4989080000001 269.0871600000001 258.4989080000001 269.077093C258.4989080000001 269.0871600000001 370.197377 268.909995 383.44888 255.613257zM183.8021062 121.374855L165.6075824 121.374855L165.6075824 216.882665L146.7978103 216.882665L146.7978103 233.110672L202.6112209 233.110672L202.6118783 216.882665L183.8021062 216.882665L183.8021062 121.374855zM239.669417 130.439776C236.664823 127.076333 233.586609 124.534961 230.346695 122.796869C227.123872 121.021868 224.009506 120.172954 220.968102 120.172954C217.2200826 120.172954 214.4501504 121.374184 212.5321005 123.84979C210.6672933 126.318686 209.7076111 129.967337 209.7076111 134.89372L209.7076111 203.816107L225.838818 203.816107L225.838818 140.586474C225.838818 138.627597 226.182595 137.223031 226.83531 136.354656C227.541268 135.467491 228.64556 135.042028 230.148186 135.042028C231.32544 135.042028 232.845813 135.624524 234.656063 136.779449C236.484718 137.94444 238.131953 139.404706 239.670074 141.18776L239.670074 203.814765L255.800624 203.814765L255.799966 121.374184L239.669417 121.374184L239.669417 130.439776zM299.575938 120.331329C296.407672 120.331329 293.60093 120.911811 291.138622 122.113712C288.677629 123.31427 286.340868 125.16309 284.242056 127.694396L284.242056 121.374184L267.931402 121.374184L267.931402 233.110672L284.242056 233.110672L284.242056 197.134855C286.432235 199.630594 288.731529 201.561956 291.157684 202.8544520000001C293.618678 204.1664100000001 296.100705 204.814 298.597194 204.814C303.720976 204.814 307.613605 203.057789 310.292828 199.564157C313.008203 196.043683 314.348471 190.896515 314.348471 184.150168L314.348471 138.406142C314.3471570000001 132.575817 313.078536 128.102411 310.545895 124.987267C308.029687 121.864742 304.355287 120.331329 299.575938 120.331329zM339.438246 145.087393C339.438246 140.743506 339.964757 137.740432 341.0131770000001 136.049316C342.099064 134.37699 343.909314 133.552906 346.480737 133.552906C349.158644 133.552906 351.024109 134.265591 352.0922480000001 135.688276C353.1426400000001 137.111632 353.703331 140.234829 353.703331 145.087393L353.703331 148.848114L370.30452 148.848114L370.30452 144.614955C370.30452 136.158702 368.293788 129.792185 364.2217120000001 125.495273C360.203535 121.243995 354.155565 119.128757 346.118555 119.128757C338.894646 119.128757 333.1917670000001 121.374855 329.046071 125.921408C324.89906 130.439104 322.7989340000001 136.669392 322.7989340000001 144.615626L322.7989340000001 181.636311C322.7989340000001 188.761145 325.098227 194.620326 329.660662 199.111851C334.221782 203.612099 340.087675 205.857526 347.32999 205.857526C354.715599 205.857526 360.40073 203.769803 364.365007 199.601738C368.3292830000001 195.443739 370.303862 189.455039 370.303862 181.636311L370.303862 160.622176L339.438246 160.621505L339.438246 145.087393zM296.027086 189.584558C297.166215 188.143753 297.728221 186.027845 297.728221 183.245555L297.728221 140.679754C297.728221 138.028325 297.2391770000001 136.161386 296.3176200000001 135.00579C295.394747 133.822679 293.9453640000001 133.240184 291.972099 133.240184C290.596993 133.240184 289.311939 133.55559 288.07947 134.136744C286.831226 134.710515 285.544858 135.717803 284.242056 137.04788L284.242056 188.410171C285.345691 189.546977 286.449983 190.387838 287.572022 190.9247C288.695376 191.479011 289.835163 191.728652 290.993355 191.728652C293.165129 191.728652 294.849832 191.007914 296.027086 189.584558zM341.1045440000001 189.159094C339.982505 187.718961 339.4395610000001 185.223222 339.4395610000001 181.775224L339.4395610000001 173.44916L353.705303 173.44916L353.705303 181.775224C353.705303 185.222551 353.126208 187.716948 352.002853 189.159094C350.916966 190.7032440000001 349.088969 191.432706 346.644408 191.432706C344.0743 191.432706 342.227898 190.7032440000001 341.1045440000001 189.159094z M157.1544908 426.7434968830001L181.5028127 352.4249719L181.5028127 303.65841L201.9611348 303.65841L201.9611348 354.7260981L225.766513 426.7434968830001L204.9650717 426.7434968830001L192.3301319 377.5427476L191.0444206 377.5427476L177.756108 426.7434968830001L157.1544908 426.7434968830001zM254.297998 396.7543665C261.810469 396.7543665 267.984644 394.5559152 272.8001460000001 390.1563283C277.578838 385.7668076 279.9872460000001 380.1022388 279.9872460000001 373.18007L279.9872460000001 326.271723C279.9872460000001 318.509365 277.634052 312.428056 272.9454130000001 308.000955C268.201559 303.5839200000001 261.7388220000001 301.365337 253.465835 301.365337C245.536625 301.365337 239.164598 303.657739 234.384591 308.20295C229.641395 312.768964 227.234301 318.914025 227.234301 326.630079L227.232987 373.6887471C227.232987 380.7397628 229.67689 386.3399081 234.583101 390.4985781000001C239.471564 394.6666431 246.060506 396.7543665 254.297998 396.7543665zM253.428368 317.096074C255.891333 317.096074 257.827788 317.797351 259.294261 319.175074C260.743645 320.580311 261.468007 322.492212 261.468007 324.914132L261.468007 374.3826416C261.468007 376.3683612 260.724582 377.9675399 259.240362 379.1969547C257.756141 380.4163033 255.819029 381.0175891 253.428368 381.0175891C251.202037 381.0175891 249.410192 380.4163033 248.016023 379.1969547C246.640259 377.9675399 245.934301 376.3697034 245.934301 374.3826416L245.934301 324.913461C245.933644 322.427789 246.60345 320.515216 247.888504 319.138165C249.174215 317.770508 251.021275 317.096074 253.428368 317.096074zM328.395985 303.657739L328.395985 313.684314C325.082452 309.997412 321.589471 307.159424 317.949252 305.238127C314.328752 303.306765 310.816052 302.344439 307.411809 302.344439C303.176718 302.344439 300.043947 303.703372 297.9089830000001 306.401777C295.790452 309.109576 294.722312 313.156847 294.722312 318.573117L294.722312 394.4633064L312.861621 394.4633064L312.861621 324.849038C312.861621 322.6955490000001 313.279017 321.143345 314.038875 320.182362C314.780986 319.220036 316.0298870000001 318.731491 317.7323370000001 318.731491C319.053544 318.731491 320.755994 319.377739 322.800906 320.644063C324.8280700000001 321.919111 326.711282 323.547147 328.39467 325.542261L328.39467 394.4633064L346.572104 394.4633064L346.572104 303.657739L328.395985 303.657739z" />
  </font>
</defs>
</svg>
